0
SECTION
2
ENTITIES
0
LWPOLYLINE
8
0
90
44
70
1
10
23.05221
20
88.19277
10
22.16867
20
88.03213
10
20.32129
20
86.66667
10
14.61847
20
81.60643
10
10.04016
20
76.30522
10
7.06827
20
71.88755
10
4.57831
20
67.14859
10
2.48996
20
61.84739
10
1.12450
20
56.38554
10
0.64257
20
52.20884
10
0.64257
20
47.06827
10
1.36546
20
41.20482
10
2.40964
20
37.02811
10
4.49799
20
31.64659
10
7.22892
20
26.50602
10
11.72691
20
20.08032
10
14.53815
20
16.78715
10
17.99197
20
13.33333
10
20.88353
20
11.16466
10
21.60643
20
11.16466
10
22.57028
20
11.88755
10
23.61446
20
14.05622
10
26.90763
20
25.38153
10
27.63052
20
28.51406
10
27.79116
20
30.12048
10
27.71084
20
32.69076
10
27.22892
20
35.42169
10
25.46185
20
40.32129
10
24.33735
20
42.32932
10
22.81124
20
44.49799
10
20.08032
20
47.38956
10
18.07229
20
49.07631
10
22.08835
20
52.77108
10
24.33735
20
55.82329
10
26.34538
20
60.00000
10
27.06827
20
62.24900
10
27.63052
20
64.97992
10
27.79116
20
70.12048
10
27.46988
20
72.53012
10
26.58635
20
76.14458
10
24.49799
20
82.16867
10
24.33735
20
84.97992
10
24.01606
20
86.82731
10
23.69478
20
87.63052
0
LWPOLYLINE
8
0
90
166
70
1
10
8.03213
20
45.70281
10
8.83534
20
45.70281
10
8.91566
20
45.62249
10
9.31727
20
45.62249
10
9.39759
20
45.54217
10
9.71888
20
45.54217
10
9.79920
20
45.46185
10
10.04016
20
45.46185
10
10.12048
20
45.38153
10
10.52209
20
45.30120
10
11.16466
20
44.97992
10
11.32530
20
44.97992
10
11.64659
20
44.81928
10
11.80723
20
44.65863
10
12.53012
20
44.33735
10
12.69076
20
44.17671
10
12.77108
20
44.17671
10
12.93173
20
44.01606
10
13.01205
20
44.01606
10
13.17269
20
43.85542
10
13.25301
20
43.85542
10
13.41365
20
43.69478
10
13.73494
20
43.53414
10
14.05622
20
43.21285
10
14.13655
20
43.21285
10
15.34137
20
42.08835
10
15.34137
20
42.00803
10
16.14458
20
41.20482
10
16.14458
20
41.12450
10
17.02811
20
40.08032
10
17.18876
20
39.75904
10
17.42972
20
39.51807
10
17.42972
20
39.43775
10
17.67068
20
39.19679
10
17.67068
20
39.11647
10
17.99197
20
38.71486
10
18.15261
20
38.31325
10
18.55422
20
37.75100
10
19.35743
20
36.14458
10
19.35743
20
35.98394
10
19.67871
20
35.34137
10
19.67871
20
35.18072
10
19.75904
20
35.10040
10
19.75904
20
34.93976
10
19.83936
20
34.85944
10
19.83936
20
34.69880
10
19.91968
20
34.61847
10
19.91968
20
34.45783
10
20.00000
20
34.37751
10
20.00000
20
34.21687
10
20.16064
20
33.89558
10
20.16064
20
33.65462
10
20.24096
20
33.57430
10
20.24096
20
33.25301
10
20.32129
20
33.17269
10
20.32129
20
32.85141
10
20.40161
20
32.77108
10
20.40161
20
32.44980
10
20.48193
20
32.36948
10
20.48193
20
31.96787
10
20.56225
20
31.88755
10
20.56225
20
31.24498
10
20.64257
20
31.16466
10
20.64257
20
28.35341
10
20.56225
20
28.27309
10
20.56225
20
27.79116
10
20.48193
20
27.71084
10
20.48193
20
27.38956
10
20.40161
20
27.30924
10
20.40161
20
26.90763
10
20.32129
20
26.82731
10
20.32129
20
26.58635
10
20.24096
20
26.50602
10
20.24096
20
26.26506
10
20.08032
20
25.94378
10
20.08032
20
25.70281
10
20.00000
20
25.62249
10
20.00000
20
25.46185
10
19.83936
20
25.22088
10
19.83936
20
25.06024
10
19.67871
20
24.81928
10
19.67871
20
24.65863
10
19.51807
20
24.41767
10
19.51807
20
24.25703
10
19.27711
20
23.77510
10
19.11647
20
23.61446
10
18.87550
20
23.13253
10
18.71486
20
22.97189
10
18.63454
20
22.97189
10
17.83133
20
23.77510
10
17.83133
20
23.85542
10
16.94779
20
24.73896
10
16.94779
20
24.81928
10
15.98394
20
25.86345
10
15.98394
20
25.94378
10
15.58233
20
26.34538
10
15.58233
20
26.42570
10
15.26104
20
26.74699
10
15.26104
20
26.82731
10
15.02008
20
27.06827
10
15.02008
20
27.14859
10
14.37751
20
27.87149
10
14.37751
20
27.95181
10
14.21687
20
28.11245
10
14.21687
20
28.19277
10
14.05622
20
28.35341
10
13.89558
20
28.67470
10
13.33333
20
29.31727
10
13.09237
20
29.79920
10
12.93173
20
29.95984
10
12.69076
20
30.44177
10
12.53012
20
30.60241
10
12.44980
20
30.84337
10
12.28916
20
31.00402
10
12.04819
20
31.48594
10
11.88755
20
31.64659
10
11.64659
20
32.20884
10
11.48594
20
32.36948
10
10.44177
20
34.45783
10
10.44177
20
34.61847
10
10.28112
20
34.85944
10
10.28112
20
35.02008
10
10.12048
20
35.26104
10
10.12048
20
35.42169
10
9.95984
20
35.66265
10
9.95984
20
35.82329
10
9.79920
20
36.06426
10
9.79920
20
36.22490
10
9.47791
20
36.86747
10
9.47791
20
37.02811
10
9.39759
20
37.10843
10
9.39759
20
37.26908
10
9.31727
20
37.34940
10
9.31727
20
37.51004
10
9.23695
20
37.59036
10
9.23695
20
37.75100
10
9.15663
20
37.83133
10
9.15663
20
37.99197
10
9.07631
20
38.07229
10
9.07631
20
38.23293
10
8.91566
20
38.55422
10
8.91566
20
38.79518
10
8.75502
20
39.11647
10
8.75502
20
39.35743
10
8.67470
20
39.43775
10
8.67470
20
39.67871
10
8.51406
20
40.00000
10
8.51406
20
40.32129
10
8.43373
20
40.40161
10
8.43373
20
40.64257
10
8.35341
20
40.72289
10
8.35341
20
40.96386
10
8.27309
20
41.04418
10
8.27309
20
41.36546
10
8.19277
20
41.44578
10
8.19277
20
41.76707
10
8.11245
20
41.84739
10
8.11245
20
42.16867
10
8.03213
20
42.24900
10
8.03213
20
42.65060
10
7.95181
20
42.73092
10
7.95181
20
43.29317
10
7.87149
20
43.37349
10
7.87149
20
44.01606
10
7.79116
20
44.09639
10
7.79116
20
45.46185
0
LWPOLYLINE
8
0
90
157
70
1
10
18.63454
20
76.06426
10
19.11647
20
75.58233
10
19.11647
20
75.50201
10
19.43775
20
75.10040
10
20.00000
20
73.97590
10
20.00000
20
73.81526
10
20.16064
20
73.57430
10
20.16064
20
73.41365
10
20.40161
20
72.93173
10
20.48193
20
72.44980
10
20.64257
20
72.12851
10
20.64257
20
71.80723
10
20.72289
20
71.72691
10
20.72289
20
71.48594
10
20.80321
20
71.40562
10
20.80321
20
71.00402
10
20.88353
20
70.92369
10
20.88353
20
70.52209
10
20.96386
20
70.44177
10
20.96386
20
69.95984
10
21.04418
20
69.87952
10
21.04418
20
66.90763
10
20.96386
20
66.82731
10
20.96386
20
66.18474
10
20.88353
20
66.10442
10
20.80321
20
65.06024
10
20.72289
20
64.97992
10
20.72289
20
64.65863
10
20.64257
20
64.57831
10
20.64257
20
64.33735
10
20.56225
20
64.25703
10
20.56225
20
64.01606
10
20.48193
20
63.93574
10
20.40161
20
63.37349
10
20.24096
20
63.05221
10
20.24096
20
62.81124
10
20.16064
20
62.73092
10
20.08032
20
62.32932
10
19.91968
20
62.08835
10
19.83936
20
61.68675
10
19.67871
20
61.44578
10
19.67871
20
61.28514
10
19.43775
20
60.88353
10
19.43775
20
60.72289
10
18.87550
20
59.59839
10
18.47390
20
59.03614
10
18.39357
20
58.79518
10
18.23293
20
58.63454
10
17.91165
20
58.07229
10
17.42972
20
57.51004
10
17.42972
20
57.42972
10
16.70683
20
56.62651
10
16.70683
20
56.54618
10
15.26104
20
55.10040
10
15.18072
20
55.10040
10
14.37751
20
54.37751
10
14.29719
20
54.37751
10
13.49398
20
53.73494
10
13.25301
20
53.65462
10
12.44980
20
53.09237
10
11.48594
20
52.61044
10
11.32530
20
52.61044
10
10.92369
20
52.36948
10
10.76305
20
52.36948
10
10.68273
20
52.28916
10
10.52209
20
52.28916
10
10.44177
20
52.20884
10
10.28112
20
52.20884
10
10.20080
20
52.12851
10
10.04016
20
52.12851
10
9.95984
20
52.04819
10
9.79920
20
52.04819
10
9.47791
20
51.88755
10
9.15663
20
51.88755
10
9.07631
20
51.80723
10
8.75502
20
51.80723
10
8.67470
20
51.72691
10
8.11245
20
51.72691
10
7.95181
20
51.64659
10
7.71084
20
51.88755
10
7.71084
20
52.04819
10
7.79116
20
52.12851
10
7.79116
20
53.09237
10
7.87149
20
53.17269
10
7.87149
20
53.97590
10
7.95181
20
54.05622
10
7.95181
20
54.77912
10
8.03213
20
54.85944
10
8.11245
20
56.06426
10
8.19277
20
56.14458
10
8.19277
20
56.46586
10
8.27309
20
56.54618
10
8.27309
20
57.02811
10
8.35341
20
57.10843
10
8.43373
20
57.83133
10
8.51406
20
57.91165
10
8.51406
20
58.15261
10
8.59438
20
58.23293
10
8.59438
20
58.47390
10
8.67470
20
58.55422
10
8.67470
20
58.79518
10
8.75502
20
58.87550
10
8.75502
20
59.11647
10
8.83534
20
59.19679
10
8.91566
20
59.75904
10
8.99598
20
59.83936
10
8.99598
20
60.00000
10
9.07631
20
60.08032
10
9.07631
20
60.24096
10
9.15663
20
60.32129
10
9.15663
20
60.48193
10
9.31727
20
60.80321
10
9.39759
20
61.28514
10
9.55823
20
61.52610
10
9.55823
20
61.68675
10
9.63855
20
61.76707
10
9.79920
20
62.40964
10
9.95984
20
62.65060
10
9.95984
20
62.81124
10
10.12048
20
63.05221
10
10.12048
20
63.21285
10
10.28112
20
63.45382
10
10.28112
20
63.61446
10
10.52209
20
64.01606
10
10.52209
20
64.17671
10
10.76305
20
64.57831
10
10.76305
20
64.73896
10
12.28916
20
67.79116
10
12.61044
20
68.19277
10
12.77108
20
68.59438
10
12.93173
20
68.75502
10
13.01205
20
68.99598
10
13.33333
20
69.39759
10
13.41365
20
69.63855
10
13.57430
20
69.79920
10
13.57430
20
69.87952
10
13.73494
20
70.04016
10
14.05622
20
70.60241
10
14.29719
20
70.84337
10
14.45783
20
71.16466
10
14.69880
20
71.40562
10
14.69880
20
71.48594
10
15.34137
20
72.28916
10
15.34137
20
72.36948
10
15.66265
20
72.69076
10
15.66265
20
72.77108
10
15.90361
20
73.01205
10
15.90361
20
73.09237
10
16.30522
20
73.49398
10
16.30522
20
73.57430
10
16.62651
20
73.89558
10
16.62651
20
73.97590
10
16.94779
20
74.29719
10
16.94779
20
74.37751
10
17.75100
20
75.18072
10
17.75100
20
75.26104
10
18.55422
20
76.06426
0
LWPOLYLINE
8
0
90
30
70
1
10
76.38554
20
88.83534
10
76.06426
20
88.35341
10
75.82329
20
87.06827
10
75.82329
20
85.14056
10
76.54618
20
81.12450
10
76.22490
20
16.62651
10
75.58233
20
13.33333
10
75.50201
20
11.64659
10
75.82329
20
10.84337
10
76.22490
20
10.52209
10
76.70683
20
10.44177
10
77.91165
20
10.92369
10
80.72289
20
12.85141
10
83.53414
20
15.18072
10
86.50602
20
18.07229
10
90.60241
20
22.97189
10
93.97590
20
28.27309
10
96.78715
20
34.29719
10
98.39357
20
39.67871
10
99.27711
20
45.94378
10
99.27711
20
51.16466
10
98.71486
20
56.22490
10
97.26908
20
62.24900
10
95.82329
20
66.34538
10
94.61847
20
68.99598
10
92.04819
20
73.57430
10
88.03213
20
79.03614
10
83.85542
20
83.45382
10
79.35743
20
87.22892
10
76.86747
20
88.83534
0
LWPOLYLINE
8
0
90
34
70
1
10
84.25703
20
72.12851
10
84.57831
20
72.04819
10
85.38153
20
71.16466
10
87.46988
20
67.79116
10
89.23695
20
64.01606
10
90.76305
20
59.75904
10
91.72691
20
55.98394
10
91.80723
20
55.18072
10
92.04819
20
54.29719
10
92.20884
20
52.61044
10
92.28916
20
52.53012
10
92.36948
20
50.68273
10
92.44980
20
50.60241
10
92.44980
20
46.10442
10
92.36948
20
46.02410
10
92.36948
20
44.89960
10
92.28916
20
44.81928
10
92.20884
20
43.53414
10
91.64659
20
40.40161
10
91.00402
20
37.83133
10
89.55823
20
33.81526
10
87.95181
20
30.60241
10
86.66667
20
28.59438
10
85.62249
20
27.22892
10
84.49799
20
26.10442
10
84.01606
20
26.02410
10
83.77510
20
26.50602
10
83.69478
20
29.95984
10
83.61446
20
30.04016
10
83.53414
20
70.20080
10
83.61446
20
70.28112
10
83.61446
20
70.92369
10
83.77510
20
71.56627
10
83.93574
20
71.88755
0
LWPOLYLINE
8
0
90
56
70
1
10
44.49799
20
96.22490
10
43.05221
20
96.22490
10
40.08032
20
95.66265
10
35.34137
20
94.37751
10
30.36145
20
92.53012
10
28.67470
20
91.64659
10
28.27309
20
91.08434
10
28.43373
20
89.95984
10
29.87952
20
86.42570
10
29.79920
20
14.77912
10
29.55823
20
13.57430
10
27.87149
20
10.60241
10
27.46988
20
9.23695
10
27.63052
20
8.75502
10
28.51406
20
8.11245
10
32.53012
20
6.18474
10
38.31325
20
4.49799
10
42.00803
20
3.85542
10
43.69478
20
3.93574
10
44.81928
20
4.65863
10
45.54217
20
5.54217
10
46.66667
20
8.19277
10
46.90763
20
10.52209
10
46.58635
20
11.48594
10
45.86345
20
11.96787
10
44.73896
20
12.04819
10
41.44578
20
11.16466
10
39.75904
20
11.00402
10
38.55422
20
11.32530
10
37.75100
20
12.20884
10
37.67068
20
45.38153
10
37.75100
20
45.70281
10
38.63454
20
46.34538
10
39.91968
20
46.26506
10
42.24900
20
45.30120
10
43.21285
20
45.30120
10
43.93574
20
45.62249
10
44.89960
20
47.06827
10
45.14056
20
50.44177
10
44.89960
20
52.20884
10
44.25703
20
53.25301
10
43.53414
20
53.73494
10
42.16867
20
53.73494
10
39.43775
20
52.20884
10
38.31325
20
52.28916
10
37.67068
20
53.25301
10
37.67068
20
86.18474
10
38.23293
20
88.27309
10
39.19679
20
89.07631
10
40.48193
20
89.15663
10
43.61446
20
88.43373
10
45.14056
20
88.43373
10
46.34538
20
89.23695
10
46.66667
20
91.08434
10
46.18474
20
94.05622
10
45.46185
20
95.58233
0
LWPOLYLINE
8
0
90
36
70
1
10
50.52209
20
96.70683
10
48.99598
20
96.14458
10
49.87952
20
91.64659
10
49.55823
20
9.47791
10
48.43373
20
4.17671
10
49.23695
20
3.37349
10
52.36948
20
3.37349
10
58.23293
20
4.25703
10
58.63454
20
4.89960
10
57.42972
20
11.00402
10
57.75100
20
60.32129
10
58.87550
20
58.47390
10
63.93574
20
43.29317
10
64.33735
20
13.33333
10
63.13253
20
6.10442
10
63.69478
20
5.30120
10
64.89960
20
5.22088
10
69.31727
20
6.98795
10
72.77108
20
9.07631
10
71.72691
20
15.10040
10
71.16466
20
79.75904
10
71.72691
20
84.17671
10
71.80723
20
91.24498
10
71.00402
20
92.20884
10
66.02410
20
94.37751
10
64.09639
20
94.53815
10
63.21285
20
93.57430
10
63.13253
20
91.64659
10
64.25703
20
87.55020
10
64.09639
20
69.15663
10
63.69478
20
68.03213
10
61.04418
20
74.77912
10
58.15261
20
85.54217
10
57.91165
20
91.72691
10
58.71486
20
95.74297
10
58.31325
20
96.22490
0
ENDSEC
0
EOF
