0
SECTION
2
ENTITIES
0
LWPOLYLINE
8
0
90
55
70
1
10
53.81558
20
98.41017
10
49.28458
20
98.56916
10
44.03816
20
98.17170
10
36.00954
20
96.42289
10
31.24006
20
94.67409
10
26.23211
20
92.20986
10
22.65501
20
89.98410
10
18.28299
20
86.64547
10
14.14944
20
82.67091
10
11.44674
20
79.57075
10
8.58506
20
75.67568
10
6.20032
20
71.70111
10
2.86169
20
63.99046
10
1.74881
20
59.93641
10
0.87440
20
54.53100
10
0.79491
20
45.62798
10
1.43084
20
40.85851
10
2.70270
20
35.69157
10
4.45151
20
31.31955
10
6.67727
20
27.10652
10
12.16216
20
19.31638
10
18.99841
20
12.40064
10
23.13196
20
9.22099
10
27.34499
20
6.59777
10
31.39905
20
4.68998
10
35.05564
20
3.41812
10
39.10970
20
2.38474
10
43.72019
20
1.66932
10
52.78219
20
1.51033
10
57.86963
20
2.14626
10
62.71860
20
3.25914
10
69.79332
20
5.88235
10
74.08585
20
8.10811
10
79.17329
20
11.44674
10
83.30684
20
14.86486
10
86.80445
20
18.36248
10
89.82512
20
22.01908
10
92.68680
20
26.23211
10
95.38951
20
31.24006
10
96.89984
20
34.89666
10
98.33068
20
40.06359
10
98.96661
20
44.03816
10
99.28458
20
49.12560
10
99.12560
20
53.57711
10
98.48967
20
58.34658
10
97.37679
20
62.95707
10
95.70747
20
67.56757
10
93.32273
20
72.41653
10
88.15580
20
79.96820
10
85.05564
20
83.46582
10
80.04769
20
88.07631
10
72.49603
20
93.00477
10
68.60095
20
94.83307
10
63.43402
20
96.66137
10
57.79014
20
97.93323
0
LWPOLYLINE
8
0
90
46
70
1
10
27.10652
20
84.02226
10
27.58347
20
83.62480
10
28.06041
20
82.51192
10
28.29889
20
78.93482
10
29.25278
20
76.70906
10
30.84261
20
71.38315
10
31.31955
20
68.20350
10
31.24006
20
64.46741
10
30.52464
20
60.89030
10
29.80922
20
58.90302
10
28.69634
20
56.59777
10
26.23211
20
53.10016
10
23.13196
20
50.07949
10
25.67568
20
47.53577
10
26.94754
20
46.02544
10
28.37838
20
43.95866
10
29.65024
20
41.57393
10
30.52464
20
39.18919
10
30.84261
20
37.83784
10
31.16057
20
35.29412
10
31.16057
20
33.14785
10
30.68362
20
29.49126
10
29.01431
20
24.00636
10
27.90143
20
18.75994
10
27.18601
20
17.09062
10
26.62957
20
16.53418
10
25.83466
20
16.37520
10
24.96025
20
16.85215
10
22.81399
20
18.60095
10
20.58824
20
20.74722
10
18.20350
20
23.44992
10
14.70588
20
28.37838
10
12.00318
20
33.14785
10
9.69793
20
38.47377
10
8.50556
20
42.60731
10
7.79014
20
46.97933
10
7.63116
20
51.74881
10
8.02862
20
56.04134
10
9.06200
20
60.65183
10
11.04928
20
65.89825
10
13.35453
20
70.11129
10
16.05723
20
74.00636
10
18.99841
20
77.42448
10
22.01908
20
80.36566
10
24.64229
20
82.59141
10
26.55008
20
83.94277
0
LWPOLYLINE
8
0
90
182
70
1
10
14.14944
20
47.37679
10
13.91097
20
47.21781
10
13.91097
20
47.05882
10
13.83148
20
46.97933
10
13.83148
20
45.31002
10
13.91097
20
45.23052
10
13.91097
20
44.51510
10
13.99046
20
44.43561
10
13.99046
20
43.87917
10
14.06995
20
43.79968
10
14.06995
20
43.32273
10
14.14944
20
43.24324
10
14.14944
20
42.76630
10
14.22893
20
42.68680
10
14.22893
20
42.28935
10
14.30843
20
42.20986
10
14.30843
20
41.97138
10
14.38792
20
41.89189
10
14.38792
20
41.57393
10
14.46741
20
41.49444
10
14.46741
20
41.25596
10
14.54690
20
41.17647
10
14.54690
20
40.93800
10
14.62639
20
40.85851
10
14.62639
20
40.62003
10
14.70588
20
40.54054
10
14.78537
20
39.98410
10
14.86486
20
39.90461
10
14.94436
20
39.50715
10
15.10334
20
39.26868
10
15.10334
20
39.03021
10
15.18283
20
38.95072
10
15.18283
20
38.79173
10
15.26232
20
38.71224
10
15.26232
20
38.55326
10
15.34181
20
38.47377
10
15.42130
20
38.07631
10
15.58029
20
37.83784
10
15.58029
20
37.67886
10
15.73927
20
37.44038
10
15.73927
20
37.28140
10
16.05723
20
36.72496
10
16.05723
20
36.56598
10
16.13672
20
36.48649
10
16.13672
20
36.40700
10
16.45469
20
35.85056
10
16.45469
20
35.69157
10
16.53418
20
35.61208
10
17.01113
20
34.57870
10
17.17011
20
34.41971
10
17.48808
20
33.70429
10
17.64706
20
33.54531
10
17.64706
20
33.46582
10
17.72655
20
33.38633
10
17.80604
20
33.14785
10
17.96502
20
32.98887
10
18.12401
20
32.59141
10
18.28299
20
32.43243
10
18.28299
20
32.35294
10
18.44197
20
32.19396
10
18.44197
20
32.11447
10
18.60095
20
31.95548
10
18.60095
20
31.87599
10
18.75994
20
31.71701
10
18.75994
20
31.63752
10
18.91892
20
31.47854
10
18.91892
20
31.39905
10
19.07790
20
31.24006
10
19.07790
20
31.16057
10
19.23688
20
31.00159
10
19.23688
20
30.92210
10
19.47536
20
30.68362
10
19.47536
20
30.60413
10
19.71383
20
30.36566
10
19.71383
20
30.28617
10
20.11129
20
29.88871
10
20.11129
20
29.80922
10
20.50874
20
29.41176
10
20.50874
20
29.33227
10
20.98569
20
28.85533
10
20.98569
20
28.77583
10
22.41653
20
27.34499
10
22.49603
20
27.34499
10
22.89348
20
26.94754
10
22.97297
20
26.94754
10
23.13196
20
26.78855
10
23.37043
20
26.78855
10
23.44992
20
26.86804
10
23.52941
20
26.86804
10
24.00636
20
27.42448
10
24.00636
20
27.50397
10
24.16534
20
27.66296
10
24.24483
20
27.90143
10
24.40382
20
28.06041
10
24.40382
20
28.13990
10
24.48331
20
28.21940
10
24.48331
20
28.37838
10
24.80127
20
28.93482
10
24.80127
20
29.09380
10
24.88076
20
29.17329
10
24.88076
20
29.33227
10
24.96025
20
29.41176
10
24.96025
20
29.57075
10
25.03975
20
29.65024
10
25.03975
20
29.80922
10
25.11924
20
29.88871
10
25.11924
20
30.12719
10
25.19873
20
30.20668
10
25.27822
20
30.76312
10
25.35771
20
30.84261
10
25.35771
20
31.16057
10
25.43720
20
31.24006
10
25.43720
20
31.55803
10
25.51669
20
31.63752
10
25.51669
20
32.35294
10
25.59618
20
32.43243
10
25.59618
20
34.26073
10
25.51669
20
34.34022
10
25.51669
20
34.89666
10
25.43720
20
34.97615
10
25.43720
20
35.45310
10
25.35771
20
35.53259
10
25.35771
20
35.85056
10
25.27822
20
35.93005
10
25.27822
20
36.16852
10
25.19873
20
36.24801
10
25.11924
20
36.80445
10
25.03975
20
36.88394
10
25.03975
20
37.04293
10
24.96025
20
37.12242
10
24.96025
20
37.28140
10
24.88076
20
37.36089
10
24.80127
20
37.75835
10
24.64229
20
37.99682
10
24.64229
20
38.15580
10
24.56280
20
38.23529
10
24.56280
20
38.31479
10
24.48331
20
38.39428
10
24.48331
20
38.55326
10
24.32432
20
38.79173
10
24.32432
20
38.95072
10
24.24483
20
39.03021
10
24.00636
20
39.58665
10
23.84738
20
39.74563
10
23.52941
20
40.46105
10
23.37043
20
40.62003
10
23.21145
20
41.01749
10
22.89348
20
41.41494
10
22.81399
20
41.65342
10
22.25755
20
42.28935
10
22.25755
20
42.36884
10
22.01908
20
42.60731
10
22.01908
20
42.68680
10
21.78060
20
42.92528
10
21.78060
20
43.00477
10
21.38315
20
43.40223
10
21.38315
20
43.48172
10
20.03180
20
44.83307
10
19.95231
20
44.83307
10
19.23688
20
45.46900
10
19.15739
20
45.46900
10
18.52146
20
45.94595
10
18.28299
20
46.02544
10
18.12401
20
46.18442
10
18.04452
20
46.18442
10
17.17011
20
46.66137
10
17.01113
20
46.66137
10
16.93164
20
46.74086
10
16.85215
20
46.74086
10
16.77266
20
46.82035
10
16.61367
20
46.82035
10
16.37520
20
46.97933
10
16.21622
20
46.97933
10
16.13672
20
47.05882
10
15.97774
20
47.05882
10
15.89825
20
47.13831
10
15.65978
20
47.13831
10
15.58029
20
47.21781
10
15.26232
20
47.21781
10
15.18283
20
47.29730
10
14.86486
20
47.29730
10
14.78537
20
47.37679
0
LWPOLYLINE
8
0
90
168
70
1
10
23.84738
20
73.60890
10
22.25755
20
72.01908
10
22.25755
20
71.93959
10
21.62162
20
71.30366
10
21.62162
20
71.22417
10
21.14467
20
70.74722
10
21.14467
20
70.66773
10
20.82671
20
70.34976
10
20.82671
20
70.27027
10
20.11129
20
69.47536
10
20.11129
20
69.39587
10
19.39587
20
68.52146
10
19.39587
20
68.44197
10
19.23688
20
68.28299
10
19.23688
20
68.20350
10
19.07790
20
68.04452
10
19.07790
20
67.96502
10
18.91892
20
67.80604
10
18.91892
20
67.72655
10
18.68045
20
67.48808
10
18.68045
20
67.40859
10
18.20350
20
66.77266
10
18.12401
20
66.53418
10
17.96502
20
66.37520
10
17.88553
20
66.13672
10
17.72655
20
65.97774
10
17.64706
20
65.73927
10
17.48808
20
65.58029
10
17.17011
20
64.86486
10
17.01113
20
64.70588
10
17.01113
20
64.62639
10
16.85215
20
64.38792
10
16.85215
20
64.22893
10
16.45469
20
63.51351
10
16.45469
20
63.35453
10
16.13672
20
62.79809
10
16.13672
20
62.63911
10
15.89825
20
62.24165
10
15.81876
20
61.84420
10
15.65978
20
61.60572
10
15.65978
20
61.44674
10
15.58029
20
61.36725
10
15.58029
20
61.20827
10
15.50079
20
61.12878
10
15.50079
20
60.89030
10
15.42130
20
60.81081
10
15.42130
20
60.65183
10
15.34181
20
60.57234
10
15.34181
20
60.41335
10
15.26232
20
60.33386
10
15.26232
20
60.17488
10
15.18283
20
60.09539
10
15.18283
20
59.93641
10
15.10334
20
59.85692
10
15.10334
20
59.69793
10
15.02385
20
59.61844
10
15.02385
20
59.37997
10
14.94436
20
59.30048
10
14.94436
20
59.14149
10
14.86486
20
59.06200
10
14.86486
20
58.82353
10
14.78537
20
58.74404
10
14.70588
20
58.18760
10
14.62639
20
58.10811
10
14.62639
20
57.79014
10
14.54690
20
57.71065
10
14.54690
20
57.47218
10
14.46741
20
57.39269
10
14.46741
20
57.07472
10
14.38792
20
56.99523
10
14.38792
20
56.59777
10
14.30843
20
56.51828
10
14.30843
20
56.04134
10
14.22893
20
55.96184
10
14.22893
20
55.40541
10
14.14944
20
55.32591
10
14.14944
20
54.61049
10
14.06995
20
54.53100
10
14.06995
20
53.10016
10
15.18283
20
53.10016
10
15.26232
20
53.17965
10
15.58029
20
53.17965
10
15.65978
20
53.25914
10
15.97774
20
53.25914
10
16.05723
20
53.33863
10
16.29571
20
53.33863
10
16.37520
20
53.41812
10
16.53418
20
53.41812
10
16.61367
20
53.49762
10
16.77266
20
53.49762
10
16.85215
20
53.57711
10
17.01113
20
53.57711
10
17.09062
20
53.65660
10
17.48808
20
53.73609
10
17.72655
20
53.89507
10
17.88553
20
53.89507
10
17.96502
20
53.97456
10
18.99841
20
54.45151
10
19.15739
20
54.61049
10
19.39587
20
54.68998
10
19.55485
20
54.84897
10
19.79332
20
54.92846
10
19.95231
20
55.08744
10
20.03180
20
55.08744
10
20.19078
20
55.24642
10
20.27027
20
55.24642
10
21.14467
20
56.04134
10
21.22417
20
56.04134
10
22.25755
20
57.07472
10
22.25755
20
57.15421
10
22.81399
20
57.71065
10
22.81399
20
57.79014
10
23.29094
20
58.34658
10
23.29094
20
58.42607
10
23.60890
20
58.82353
10
23.68839
20
59.06200
10
24.00636
20
59.45946
10
24.00636
20
59.53895
10
24.72178
20
60.89030
10
24.72178
20
61.04928
10
24.88076
20
61.28776
10
24.88076
20
61.44674
10
25.03975
20
61.68521
10
25.03975
20
61.84420
10
25.11924
20
61.92369
10
25.11924
20
62.08267
10
25.19873
20
62.16216
10
25.19873
20
62.32114
10
25.27822
20
62.40064
10
25.27822
20
62.55962
10
25.35771
20
62.63911
10
25.35771
20
62.87758
10
25.43720
20
62.95707
10
25.43720
20
63.11606
10
25.51669
20
63.19555
10
25.51669
20
63.51351
10
25.59618
20
63.59300
10
25.59618
20
63.83148
10
25.67568
20
63.91097
10
25.67568
20
64.22893
10
25.75517
20
64.30843
10
25.75517
20
64.70588
10
25.83466
20
64.78537
10
25.83466
20
65.34181
10
25.91415
20
65.42130
10
25.91415
20
66.13672
10
25.99364
20
66.21622
10
25.99364
20
67.80604
10
25.91415
20
67.88553
10
25.91415
20
68.68045
10
25.83466
20
68.75994
10
25.83466
20
69.23688
10
25.75517
20
69.31638
10
25.75517
20
69.71383
10
25.67568
20
69.79332
10
25.67568
20
70.11129
10
25.59618
20
70.19078
10
25.59618
20
70.42925
10
25.51669
20
70.50874
10
25.51669
20
70.74722
10
25.43720
20
70.82671
10
25.35771
20
71.22417
10
25.11924
20
71.62162
10
25.11924
20
71.78060
10
25.03975
20
71.86010
10
24.64229
20
72.73450
10
24.48331
20
72.89348
10
24.48331
20
72.97297
0
LWPOLYLINE
8
0
90
32
70
1
10
72.01908
20
84.57870
10
72.73450
20
84.34022
10
74.72178
20
82.90938
10
79.72973
20
78.45787
10
81.79650
20
76.23211
10
83.62480
20
73.92687
10
86.08903
20
70.11129
10
88.15580
20
66.21622
10
90.14308
20
61.04928
10
90.85851
20
58.34658
10
91.33545
20
55.72337
10
91.73291
20
50.79491
10
91.49444
20
45.15103
10
90.77901
20
40.69952
10
89.42766
20
36.08903
10
87.51987
20
31.95548
10
84.26073
20
26.78855
10
81.16057
20
22.97297
10
76.78855
20
18.75994
10
74.16534
20
16.69316
10
72.73450
20
15.89825
10
72.41653
20
15.89825
10
72.01908
20
16.29571
10
71.86010
20
16.77266
10
71.86010
20
18.44197
10
72.41653
20
20.03180
10
72.73450
20
21.86010
10
72.49603
20
39.66614
10
72.33704
20
78.21940
10
71.78060
20
80.52464
10
71.54213
20
82.51192
10
71.62162
20
84.02226
0
LWPOLYLINE
8
0
90
71
70
1
10
79.01431
20
70.03180
10
78.77583
20
69.87281
10
78.45787
20
69.07790
10
78.45787
20
57.47218
10
78.37838
20
57.39269
10
78.37838
20
56.67727
10
78.45787
20
56.59777
10
78.45787
20
55.32591
10
78.37838
20
55.24642
10
78.37838
20
53.65660
10
78.45787
20
53.57711
10
78.45787
20
52.78219
10
78.37838
20
52.70270
10
78.37838
20
50.95390
10
78.45787
20
50.87440
10
78.45787
20
50.39746
10
78.37838
20
50.31797
10
78.37838
20
49.68203
10
78.45787
20
49.60254
10
78.45787
20
33.70429
10
78.53736
20
33.62480
10
78.53736
20
31.31955
10
78.61685
20
31.24006
10
78.61685
20
30.92210
10
78.85533
20
30.36566
10
79.09380
20
30.12719
10
79.57075
20
30.12719
10
80.36566
20
30.84261
10
81.71701
20
32.75040
10
82.75040
20
34.49921
10
84.02226
20
37.12242
10
85.21463
20
40.46105
10
85.21463
20
40.69952
10
85.53259
20
41.65342
10
85.53259
20
41.97138
10
85.69157
20
42.28935
10
85.77107
20
43.08426
10
86.00954
20
43.95866
10
86.08903
20
45.07154
10
86.16852
20
45.15103
10
86.16852
20
45.86645
10
86.24801
20
45.94595
10
86.24801
20
46.66137
10
86.32750
20
46.74086
10
86.32750
20
51.43084
10
86.24801
20
51.51033
10
86.24801
20
52.38474
10
86.16852
20
52.46423
10
86.00954
20
54.53100
10
85.93005
20
54.61049
10
85.93005
20
55.00795
10
85.85056
20
55.08744
10
85.85056
20
55.48490
10
85.77107
20
55.56439
10
85.77107
20
55.96184
10
85.69157
20
56.04134
10
85.45310
20
57.55167
10
85.37361
20
57.63116
10
85.21463
20
58.50556
10
85.05564
20
58.82353
10
85.05564
20
59.06200
10
84.89666
20
59.37997
10
84.89666
20
59.61844
10
84.02226
20
62.16216
10
83.62480
20
62.95707
10
83.54531
20
63.35453
10
83.14785
20
64.06995
10
83.14785
20
64.22893
10
81.47854
20
67.32909
10
79.96820
20
69.47536
10
79.49126
20
69.95231
0
LWPOLYLINE
8
0
90
54
70
1
10
45.94595
20
90.69952
10
46.82035
20
90.14308
10
47.45628
20
88.79173
10
47.77424
20
87.04293
10
47.61526
20
84.65819
10
47.13831
20
84.18124
10
46.34340
20
83.94277
10
45.15103
20
84.02226
10
42.60731
20
84.65819
10
41.57393
20
84.65819
10
41.01749
20
84.41971
10
40.46105
20
83.86328
10
40.06359
20
82.98887
10
39.82512
20
80.60413
10
39.66614
20
53.02067
10
40.22258
20
52.38474
10
41.25596
20
52.30525
10
43.95866
20
53.57711
10
45.23052
20
53.41812
10
45.78696
20
52.94118
10
46.18442
20
52.06677
10
46.34340
20
49.52305
10
46.10493
20
47.61526
10
45.86645
20
47.13831
10
45.07154
20
46.50238
10
43.56121
20
46.50238
10
41.25596
20
47.37679
10
40.38156
20
47.29730
10
39.66614
20
46.66137
10
39.50715
20
16.53418
10
40.06359
20
15.81876
10
41.49444
20
15.34181
10
45.15103
20
15.97774
10
46.58188
20
15.97774
10
47.53577
20
15.34181
10
47.77424
20
14.62639
10
47.77424
20
13.03657
10
47.37679
20
11.44674
10
46.10493
20
9.77742
10
44.75358
20
9.37997
10
39.82512
20
10.33386
10
35.85056
20
11.52623
10
32.43243
20
13.03657
10
31.55803
20
13.83148
10
31.63752
20
14.70588
10
32.98887
20
17.09062
10
33.62480
20
19.07790
10
33.54531
20
82.75040
10
33.14785
20
84.26073
10
32.43243
20
85.77107
10
32.35294
20
86.56598
10
32.90938
20
87.36089
10
37.44038
20
89.10970
10
42.44833
20
90.38156
0
LWPOLYLINE
8
0
90
40
70
1
10
56.35930
20
90.54054
10
57.63116
20
89.98410
10
56.91574
20
85.77107
10
57.23370
20
80.52464
10
59.45946
20
71.62162
10
60.89030
20
67.80604
10
61.68521
20
66.61367
10
62.00318
20
66.69316
10
62.08267
20
82.51192
10
60.96979
20
87.28140
10
61.04928
20
88.39428
10
61.76471
20
89.03021
10
62.95707
20
88.95072
10
67.09062
20
87.28140
10
68.28299
20
86.32750
10
67.56757
20
71.46264
10
67.72655
20
20.19078
10
68.44197
20
13.99046
10
67.80604
20
13.27504
10
63.19555
20
11.28776
10
61.92369
20
11.12878
10
61.52623
20
11.60572
10
61.44674
20
12.79809
10
62.40064
20
16.61367
10
62.63911
20
19.15739
10
62.16216
20
45.46900
10
58.34658
20
56.75676
10
57.31320
20
59.14149
10
56.83625
20
59.53895
10
56.20032
20
15.10334
10
57.23370
20
10.25437
10
56.75676
20
9.77742
10
55.40541
20
9.45946
10
50.55644
20
9.06200
10
50.00000
20
9.22099
10
49.60254
20
9.85692
10
50.55644
20
14.70588
10
50.39746
20
86.32750
10
49.84102
20
90.38156
10
50.31797
20
90.85851
0
ENDSEC
0
EOF
